<?xml version="1.0" standalone="no"?>
<!DOCTYPE svg PUBLIC "-//W3C//DTD SVG 20010904//EN"
 "http://www.w3.org/TR/2001/REC-SVG-20010904/DTD/svg10.dtd">
<svg version="1.0" xmlns="http://www.w3.org/2000/svg"
 width="1050.000000pt" height="750.000000pt" viewBox="0 0 1050.000000 750.000000"
 preserveAspectRatio="xMidYMid meet">

<g transform="translate(0.000000,750.000000) scale(0.100000,-0.100000)"
fill="#000000" stroke="none">
<path d="M4960 5949 c-292 -30 -567 -129 -809 -291 -191 -127 -396 -338 -510
-524 -173 -283 -271 -623 -271 -944 0 -345 104 -686 296 -975 30 -45 62 -90
71 -100 10 -11 29 -33 41 -50 54 -71 214 -222 297 -281 50 -35 95 -68 102 -74
7 -5 17 -10 23 -10 5 0 10 -3 10 -7 0 -5 10 -13 23 -19 12 -6 56 -28 97 -50
162 -86 370 -148 575 -174 102 -13 403 -14 435 -2 20 8 8 10 -50 11 -247 2
-532 94 -758 245 -105 70 -98 65 -212 176 -120 118 -180 195 -258 330 -129
225 -192 471 -192 744 0 335 116 662 328 925 77 95 212 219 312 286 179 121
294 172 510 227 122 32 130 33 340 32 210 0 218 0 340 -32 69 -18 150 -42 180
-54 343 -133 627 -385 798 -708 111 -210 165 -432 166 -682 1 -166 5 -170 27
-23 18 114 18 477 1 560 -85 414 -247 714 -532 990 -120 116 -258 214 -401
285 -46 23 -93 46 -104 52 -11 6 -71 29 -134 50 -245 82 -496 112 -741 87z"/>
<path d="M3480 2181 c-124 -41 -198 -154 -188 -285 13 -153 94 -234 244 -244
131 -8 223 32 278 121 24 39 30 62 34 126 11 184 -76 280 -258 287 -47 2 -96
0 -110 -5z m173 -93 c54 -28 83 -104 74 -192 -11 -108 -61 -156 -164 -156
-100 0 -145 55 -146 180 0 76 27 141 71 164 32 18 135 21 165 4z"/>
<path d="M4793 2174 c-48 -17 -91 -56 -130 -116 -26 -40 -28 -50 -28 -143 1
-108 9 -133 62 -191 50 -56 87 -68 198 -69 81 0 109 4 145 21 88 41 137 114
147 217 12 135 -55 248 -168 281 -65 20 -170 19 -226 0z m205 -94 c93 -57 85
-278 -12 -324 -19 -9 -59 -16 -90 -16 -50 0 -61 4 -92 33 -77 70 -71 241 11
305 38 30 135 31 183 2z"/>
<path d="M7102 2148 c-52 -105 -232 -481 -232 -484 0 -2 28 -4 63 -4 l64 0 23
50 23 50 107 0 107 0 21 -50 21 -50 65 0 c37 0 66 2 66 3 0 2 -38 82 -85 178
-47 96 -105 213 -128 261 -37 76 -45 88 -68 88 -20 0 -30 -9 -47 -42z m82
-217 c37 -91 37 -91 -40 -91 -59 0 -65 2 -60 18 33 86 62 150 68 144 3 -4 18
-36 32 -71z"/>
<path d="M2475 2115 c54 -144 117 -303 140 -355 13 -30 27 -68 31 -83 5 -24
11 -28 36 -25 28 3 33 10 91 155 34 84 65 153 68 153 3 0 35 -69 71 -152 61
-145 66 -153 92 -153 28 0 31 6 121 240 51 132 95 250 99 263 7 21 5 22 -52
22 l-60 0 -31 -82 c-18 -46 -44 -114 -58 -153 l-26 -69 -13 29 c-18 41 -99
236 -107 258 -4 11 -17 17 -34 17 -27 0 -31 -7 -87 -142 -32 -79 -62 -146 -65
-150 -4 -4 -32 59 -63 140 l-56 147 -61 3 -60 3 24 -66z"/>
<path d="M3982 1932 c-34 -136 -62 -253 -62 -260 0 -8 19 -12 55 -12 l54 0 10
38 c5 20 20 78 32 129 13 51 25 90 28 88 2 -3 30 -62 62 -132 49 -108 62 -128
82 -131 19 -2 27 4 37 30 8 18 33 75 57 126 24 50 43 97 43 104 0 35 20 -21
45 -129 l29 -123 59 0 c51 0 58 2 53 18 -3 9 -28 107 -56 217 -80 318 -68 287
-104 283 -30 -3 -33 -8 -93 -158 -34 -85 -64 -159 -67 -165 -5 -12 -28 41 -91
203 -46 121 -47 122 -79 122 l-32 0 -62 -248z"/>
<path d="M5250 2177 c0 -9 69 -170 125 -292 73 -158 88 -192 96 -213 7 -19 15
-23 46 -20 l36 3 85 180 c83 179 152 333 152 341 0 2 -26 4 -58 4 l-59 0 -35
-77 c-19 -43 -52 -117 -74 -165 -21 -48 -42 -88 -45 -88 -7 0 -16 21 -103 225
l-43 100 -61 3 c-34 2 -62 1 -62 -1z"/>
<path d="M5887 2174 c-3 -3 -6 -120 -7 -260 l-1 -254 206 0 205 0 0 40 0 40
-52 1 c-29 1 -80 3 -113 4 -33 2 -75 4 -93 4 l-33 1 3 73 3 72 103 3 102 3 0
39 0 40 -105 0 -106 0 3 58 3 57 143 3 142 3 0 39 0 40 -198 0 c-109 0 -201
-3 -205 -6z"/>
<path d="M6416 2164 c-3 -9 -6 -126 -6 -260 l0 -244 205 0 205 0 0 40 0 40
-122 2 c-68 1 -132 2 -143 2 -19 1 -20 9 -23 219 l-2 217 -54 0 c-40 0 -55 -4
-60 -16z"/>
<path d="M7581 2143 c-6 -21 -33 -130 -61 -243 -28 -113 -53 -213 -56 -222 -5
-16 2 -18 53 -18 l59 0 28 118 c16 64 32 123 35 130 7 12 36 -45 102 -200 19
-46 29 -58 47 -58 24 0 31 13 123 218 27 61 28 61 54 -58 9 -41 21 -92 26
-112 l10 -38 54 0 c30 0 55 3 55 8 1 4 -28 121 -62 260 l-63 252 -31 0 c-35 0
-24 22 -137 -272 -12 -32 -24 -58 -27 -58 -3 0 -34 74 -70 165 l-65 165 -32 0
c-29 0 -33 -4 -42 -37z"/>
</g>
</svg>
